HIERARCHY
ROOT Hips
{
	OFFSET 52.609798 -4.581564 86.821404
	CHANNELS 6 Xposition Yposition Zposition Xrotation Yrotation Zrotation
	JOINT spine
	{
		OFFSET 0.000000 -0.393701 6.846367
		CHANNELS 3 Xrotation Yrotation Zrotation
		JOINT spine1
		{
			OFFSET 0.000000 -0.000001 9.496208
			CHANNELS 3 Xrotation Yrotation Zrotation
			JOINT spine2
			{
				OFFSET 0.000000 -0.000001 9.099091
				CHANNELS 3 Xrotation Yrotation Zrotation
				JOINT Neck
				{
					OFFSET 0.000000 -1.113784 23.361198
					CHANNELS 3 Xrotation Yrotation Zrotation
					JOINT Head
					{
						OFFSET 0.000000 -0.000001 7.058014
						CHANNELS 3 Xrotation Yrotation Zrotation
						End Site
						{
							OFFSET 0.000000 5.634187 17.084396
						}
					}
				}
				JOINT RightShoulder
				{
					OFFSET -3.831360 0.533489 9.826309
					CHANNELS 3 Xrotation Yrotation Zrotation
					JOINT RightArm
					{
						OFFSET 0.000000 -0.000002 12.888100
						CHANNELS 3 Xrotation Yrotation Zrotation
						JOINT RightArmRoll
						{
							OFFSET 0.000000 -0.000001 6.506165
							CHANNELS 3 Xrotation Yrotation Zrotation
							JOINT RightForeArm
							{
								OFFSET 0.000000 -0.000003 18.950104
								CHANNELS 3 Xrotation Yrotation Zrotation
								JOINT RightForeArmRoll
								{
									OFFSET 0.000000 -0.000001 7.300919
									CHANNELS 3 Xrotation Yrotation Zrotation
									JOINT RightHand
									{
										OFFSET 0.000000 -0.000002 14.651398
										CHANNELS 3 Xrotation Yrotation Zrotation
										End Site
										{
											OFFSET 0.000000 0.000000 0.100006
										}
									}
								}
							}
						}
					}
				}
				JOINT LeftShoulder
				{
					OFFSET 3.831360 0.533489 9.826309
					CHANNELS 3 Xrotation Yrotation Zrotation
					JOINT LeftArm
					{
						OFFSET 0.000000 -0.000002 12.888100
						CHANNELS 3 Xrotation Yrotation Zrotation
						JOINT LeftArmRoll
						{
							OFFSET 0.000000 -0.000001 6.506165
							CHANNELS 3 Xrotation Yrotation Zrotation
							JOINT LeftForeArm
							{
								OFFSET 0.000000 -0.000003 18.950104
								CHANNELS 3 Xrotation Yrotation Zrotation
								JOINT LeftForeArmRoll
								{
									OFFSET 0.000000 -0.000001 7.300934
									CHANNELS 3 Xrotation Yrotation Zrotation
									JOINT LeftHand
									{
										OFFSET 0.000000 -0.000002 14.651398
										CHANNELS 3 Xrotation Yrotation Zrotation
										End Site
										{
											OFFSET 0.000000 0.000000 0.100006
										}
									}
								}
							}
						}
					}
				}
			}
		}
	}
	JOINT RightUpLeg
	{
		OFFSET -6.068371 0.933477 -1.112778
		CHANNELS 3 Xrotation Yrotation Zrotation
		JOINT RightUpLegRoll
		{
			OFFSET 0.000000 -0.000003 17.179604
			CHANNELS 3 Xrotation Yrotation Zrotation
			JOINT RightLeg
			{
				OFFSET 0.000000 0.000003 -21.274300
				CHANNELS 3 Xrotation Yrotation Zrotation
				JOINT RightLegRoll
				{
					OFFSET 0.000000 -0.000003 21.343903
					CHANNELS 3 Xrotation Yrotation Zrotation
					JOINT RightFoot
					{
						OFFSET 0.000000 -0.000003 17.765198
						CHANNELS 3 Xrotation Yrotation Zrotation
						JOINT RightToeBase
						{
							OFFSET 0.000000 -0.000003 14.850792
							CHANNELS 3 Xrotation Yrotation Zrotation
							End Site
							{
								OFFSET 0.006294 0.829004 7.192139
							}
						}
					}
				}
			}
		}
	}
	JOINT LeftUpLeg
	{
		OFFSET 6.068371 0.933477 -1.112778
		CHANNELS 3 Xrotation Yrotation Zrotation
		JOINT LeftUpLegRoll
		{
			OFFSET 0.000000 -0.000003 17.179703
			CHANNELS 3 Xrotation Yrotation Zrotation
			JOINT LeftLeg
			{
				OFFSET 0.000000 -0.000004 21.274200
				CHANNELS 3 Xrotation Yrotation Zrotation
				JOINT LeftLegRoll
				{
					OFFSET 0.000000 -0.000004 21.541206
					CHANNELS 3 Xrotation Yrotation Zrotation
					JOINT LeftFoot
					{
						OFFSET 0.000000 -0.000003 17.567902
						CHANNELS 3 Xrotation Yrotation Zrotation
						JOINT LeftToeBase
						{
							OFFSET 0.000000 -0.000002 14.850800
							CHANNELS 3 Xrotation Yrotation Zrotation
							End Site
							{
								OFFSET -0.028210 0.829004 7.192123
							}
						}
					}
				}
			}
		}
	}
}
MOTION
Frames: 11
Frame Time: 0.041667
52.749901 -3.757277 86.676491 -1.917351 -0.551318 -1.311626 -1.573242 -1.610553 0.659013 0.874080 -3.253953 1.289998 2.520088 -3.238572 1.328910 6.408152 15.440797 -3.900159 10.114492 -18.230065 -2.724631 -9.151983 -49.317490 -10.119765 -45.423514 -115.499974 -34.456768 -0.000000 -0.000001 -0.000003 6.054805 -19.157730 1.466955 -0.000002 0.000011 -3.000001 -5.000189 -7.999162 0.000147 -27.043898 70.674228 31.338178 -71.836692 115.540026 51.037858 -0.000001 0.000014 0.000005 3.208590 19.303646 -1.243479 -0.000010 -0.000008 3.001422 -5.000197 7.999163 -0.000146 -14.465120 -177.129809 -0.515868 -179.999991 0.000005 -1.099000 156.468473 -4.373103 -1.366790 -0.000001 0.000002 0.467915 71.739492 7.311922 0.759298 25.456953 -7.355613 0.000000 -11.813990 -179.938342 1.855032 -0.000005 -0.000004 -1.137440 -24.415867 1.141985 1.048232 -0.000003 -0.000003 -0.767499 75.124977 -6.571420 -2.610881 25.456955 7.355613 -0.000000 
52.736900 -3.770837 86.684097 -1.912197 -0.550982 -1.308965 -1.573759 -1.610553 0.659356 0.872335 -3.253474 1.290671 2.518334 -3.238496 1.329577 6.408052 15.465264 -3.904989 10.127413 -18.243994 -2.728328 -9.146584 -49.305493 -10.112002 -45.426219 -115.513949 -34.413741 0.000002 -0.000000 -0.000003 5.917767 -19.147940 1.445543 -0.000002 0.000010 -3.000000 -5.000186 -7.999164 0.000148 -27.053208 70.675601 31.348427 -71.860236 115.538046 51.096785 -0.000002 0.000012 0.000006 3.253166 19.322733 -1.250464 -0.000007 -0.000009 3.001422 -5.000193 7.999162 -0.000148 -14.472515 -177.146352 -0.542127 -179.999991 0.000005 -1.099000 156.469361 -4.352946 -1.364977 -0.000001 0.000002 0.469632 71.737525 7.307706 0.771346 25.456950 -7.355613 -0.000000 -11.819692 -179.940295 1.856565 -0.000005 -0.000004 -1.137380 -24.414159 1.141318 1.048233 -0.000004 -0.000003 -0.767499 75.122491 -6.570992 -2.613570 25.456953 7.355613 -0.000000 
52.740398 -3.762256 86.678993 -1.907029 -0.550561 -1.306341 -1.574253 -1.610562 0.659672 0.870603 -3.253017 1.291286 2.516602 -3.238462 1.330198 6.407668 15.489348 -3.909479 10.140618 -18.257608 -2.731681 -9.141360 -49.293684 -10.104466 -45.435453 -115.526626 -34.368856 0.000001 -0.000001 -0.000002 5.768271 -19.136544 1.421799 -0.000003 0.000010 -3.000000 -5.000184 -7.999164 0.000147 -27.062985 70.677110 31.359205 -71.884340 115.536188 51.156116 -0.000001 0.000011 0.000004 3.297777 19.341713 -1.257480 -0.000008 -0.000007 3.001422 -5.000194 7.999162 -0.000146 -14.480006 -177.163892 -0.569225 -179.999991 0.000005 -1.099000 156.470536 -4.331869 -1.362722 -0.000001 0.000002 0.471410 71.735496 7.303300 0.783768 25.456953 -7.355613 0.000000 -11.825295 -179.942263 1.858060 -0.000006 -0.000004 -1.137320 -24.412355 1.140633 1.048234 -0.000003 -0.000003 -0.767499 75.120005 -6.570592 -2.616261 25.456960 7.355613 -0.000001 
52.742695 -3.756606 86.677299 -1.901847 -0.550080 -1.303755 -1.574721 -1.610582 0.659969 0.868880 -3.252558 1.291871 2.514879 -3.238465 1.330781 6.407081 15.513137 -3.913732 10.154014 -18.270911 -2.734804 -9.136239 -49.281980 -10.097071 -45.449376 -115.538578 -34.322763 -0.000000 -0.000002 -0.000004 5.610076 -19.123994 1.396459 -0.000004 0.000011 -3.000001 -5.000186 -7.999164 0.000147 -27.073171 70.678777 31.370410 -71.908805 115.534494 51.215689 -0.000002 0.000012 0.000006 3.342397 19.360675 -1.264529 -0.000008 -0.000009 3.001421 -5.000193 7.999162 -0.000145 -14.487391 -177.181418 -0.597080 -179.999991 0.000005 -1.099000 156.471943 -4.310802 -1.360467 -0.000001 0.000002 0.473229 71.733215 7.298811 0.796592 25.456953 -7.355613 -0.000000 -11.830696 -179.943232 1.859329 -0.000005 -0.000004 -1.137260 -24.410447 1.139930 1.048230 -0.000004 -0.000003 -0.767499 75.117444 -6.570229 -2.619064 25.456957 7.355613 -0.000001 
52.742599 -3.753587 86.679398 -1.896666 -0.549564 -1.301198 -1.575183 -1.610591 0.660256 0.867162 -3.252119 1.292427 2.513166 -3.238479 1.331344 6.406379 15.536930 -3.917875 10.167537 -18.284220 -2.737777 -9.131174 -49.270249 -10.089752 -45.464143 -115.550873 -34.273954 -0.000000 -0.000001 -0.000002 5.446917 -19.110746 1.370251 -0.000000 0.000010 -3.000000 -5.000186 -7.999163 0.000147 -27.083594 70.680512 31.381892 -71.933667 115.532745 51.275627 -0.000002 0.000014 0.000005 3.387040 19.379531 -1.271605 -0.000006 -0.000009 3.001418 -5.000199 7.999162 -0.000145 -14.494780 -177.198931 -0.625372 -179.999991 0.000005 -1.099000 156.473459 -4.288822 -1.358791 -0.000000 0.000002 0.475073 71.730893 7.294224 0.809705 25.456950 -7.355613 0.000000 -11.836191 -179.945186 1.860783 -0.000004 -0.000004 -1.137200 -24.408441 1.139238 1.048232 -0.000004 -0.000003 -0.767499 75.114971 -6.569824 -2.621855 25.456957 7.355614 -0.000000 
52.741001 -3.757096 86.674004 -1.891475 -0.549038 -1.298631 -1.575633 -1.610601 0.660540 0.865446 -3.251681 1.292983 2.511443 -3.238504 1.331898 6.405652 15.560525 -3.921957 10.181081 -18.297413 -2.740720 -9.126133 -49.258529 -10.082458 -45.480563 -115.562525 -34.226061 0.000001 0.000000 -0.000003 5.282555 -19.097383 1.343902 -0.000002 0.000011 -3.000000 -5.000186 -7.999163 0.000147 -27.094153 70.682349 31.393499 -71.958420 115.531120 51.335401 -0.000002 0.000013 0.000005 3.431699 19.398468 -1.278720 -0.000006 -0.000008 3.001419 -5.000198 7.999163 -0.000144 -14.502250 -177.217427 -0.653522 -179.999991 0.000005 -1.099000 156.474989 -4.266842 -1.356132 -0.000000 0.000002 0.476922 71.728577 7.289638 0.822716 25.456957 -7.355613 0.000000 -11.841590 -179.947153 1.862230 -0.000004 -0.000004 -1.137150 -24.406535 1.138536 1.048232 -0.000004 -0.000003 -0.767499 75.112410 -6.569487 -2.624561 25.456957 7.355613 -0.000000 
52.737099 -3.752027 86.676903 -1.886295 -0.548530 -1.296065 -1.576096 -1.610611 0.660830 0.863726 -3.251232 1.293549 2.509731 -3.238518 1.332461 6.404984 15.584315 -3.926116 10.194583 -18.310711 -2.743713 -9.121063 -49.246808 -10.075128 -45.494961 -115.574696 -34.177754 0.000001 0.000000 -0.000002 5.120689 -19.084293 1.318108 -0.000002 0.000011 -3.000002 -5.000186 -7.999162 0.000147 -27.104527 70.684098 31.404926 -71.983070 115.529412 51.395104 -0.000001 0.000014 0.000004 3.476360 19.417396 -1.285862 -0.000009 -0.000008 3.001421 -5.000196 7.999162 -0.000145 -14.509646 -177.234940 -0.681697 -179.999991 0.000005 -1.099000 156.476506 -4.244861 -1.354457 -0.000001 0.000002 0.478760 71.726275 7.285082 0.835730 25.456955 -7.355613 0.000000 -11.846996 -179.949106 1.863685 -0.000005 -0.000004 -1.137090 -24.404525 1.137834 1.048230 -0.000004 -0.000003 -0.767499 75.109937 -6.569085 -2.627352 25.456955 7.355613 -0.000000 
52.727600 -3.764957 86.677399 -1.881116 -0.548063 -1.293470 -1.576564 -1.610620 0.661132 0.862001 -3.250783 1.294144 2.507999 -3.238503 1.333053 6.404455 15.608207 -3.930441 10.207942 -18.324211 -2.746865 -9.115918 -49.235087 -10.067696 -45.506658 -115.587086 -34.131022 0.000001 -0.000001 -0.000003 4.965105 -19.072086 1.293585 -0.000004 0.000009 -3.000001 -5.000186 -7.999163 0.000148 -27.114553 70.685676 31.415957 -72.007474 115.527650 51.454646 -0.000004 0.000014 0.000007 3.521028 19.436306 -1.293038 -0.000008 -0.000007 3.001421 -5.000195 7.999163 -0.000143 -14.517036 -177.252479 -0.709325 -179.999991 0.000005 -1.099000 156.477776 -4.223801 -1.352220 -0.000001 0.000002 0.480567 71.724008 7.280622 0.848458 25.456952 -7.355613 0.000000 -11.852491 -179.951060 1.865159 -0.000005 -0.000004 -1.137040 -24.402627 1.137150 1.048232 -0.000003 -0.000003 -0.767499 75.107465 -6.568680 -2.630143 25.456955 7.355613 -0.000001 
52.724800 -3.751967 86.678398 -1.875955 -0.547664 -1.290838 -1.577062 -1.610630 0.661456 0.860265 -3.250315 1.294769 2.506265 -3.238457 1.333693 6.404165 15.632385 -3.935024 10.221063 -18.337919 -2.750291 -9.110648 -49.223186 -10.060101 -45.515168 -115.599490 -34.088023 0.000001 -0.000001 -0.000001 4.819497 -19.061176 1.271007 -0.000004 0.000010 -3.000001 -5.000186 -7.999162 0.000147 -27.124298 70.687199 31.426677 -72.031305 115.525765 51.513778 -0.000004 0.000014 0.000006 3.565698 19.455311 -1.300246 -0.000007 -0.000007 3.001419 -5.000195 7.999163 -0.000146 -14.524438 -177.269022 -0.736331 -179.999991 0.000005 -1.099000 156.478869 -4.202720 -1.349979 -0.000001 0.000002 0.482327 71.722006 7.276274 0.860787 25.456952 -7.355614 0.000001 -11.858091 -179.953027 1.866677 -0.000004 -0.000004 -1.136970 -24.400916 1.136464 1.048231 -0.000002 -0.000003 -0.767499 75.104890 -6.568316 -2.632745 25.456952 7.355613 -0.000001 
52.732700 -3.737188 86.672989 -1.870803 -0.547359 -1.288158 -1.577605 -1.610640 0.661809 0.858513 -3.249826 1.295462 2.504513 -3.238360 1.334379 6.404189 15.656950 -3.939984 10.233885 -18.352039 -2.754048 -9.105210 -49.211093 -10.052292 -45.515158 -115.613683 -34.045648 0.000001 -0.000002 -0.000003 4.687597 -19.052096 1.251061 -0.000003 0.000011 -3.000002 -5.000183 -7.999163 0.000147 -27.133277 70.688401 31.436588 -72.054616 115.523743 51.572463 -0.000002 0.000014 0.000004 3.610362 19.474498 -1.307494 -0.000010 -0.000008 3.001419 -5.000198 7.999163 -0.000145 -14.531849 -177.285565 -0.762135 -179.999991 0.000005 -1.099000 156.479593 -4.182545 -1.348173 -0.000001 0.000002 0.484020 71.720176 7.272114 0.872533 25.456950 -7.355614 0.000001 -11.863798 -179.954011 1.868027 -0.000005 -0.000004 -1.136910 -24.399311 1.135796 1.048233 -0.000004 -0.000003 -0.767499 75.102499 -6.567845 -2.635425 25.456955 7.355613 -0.000001 
52.731201 -3.748347 86.679398 -1.865686 -0.547174 -1.285403 -1.578174 -1.610639 0.662199 0.856745 -3.249318 1.296234 2.502739 -3.238205 1.335142 6.404625 15.682008 -3.945418 10.246292 -18.366573 -2.758281 -9.099537 -49.198819 -10.044177 -45.507443 -115.628710 -34.007512 0.000000 0.000000 -0.000004 4.573155 -19.045383 1.234431 -0.000001 0.000011 -3.000001 -5.000183 -7.999162 0.000148 -27.141556 70.689371 31.445726 -72.077251 115.521530 51.630766 -0.000001 0.000012 0.000006 3.655015 19.493777 -1.314778 -0.000010 -0.000009 3.001421 -5.000199 7.999162 -0.000145 -14.539261 -177.301151 -0.786658 -179.999991 0.000005 -1.099000 156.479921 -4.163284 -1.345790 -0.000001 0.000002 0.485630 71.718653 7.268161 0.883695 25.456952 -7.355613 0.000000 -11.869689 -179.955950 1.869643 -0.000006 -0.000004 -1.136840 -24.397803 1.135145 1.048231 -0.000004 -0.000003 -0.767499 75.099993 -6.567392 -2.638111 25.456957 7.355613 -0.000000 
